<?xml version="1.0" encoding="utf-8"?>
<!-- Generator: Adobe Illustrator 27.9.0, SVG Export Plug-In . SVG Version: 6.00 Build 0)  -->
<svg version="1.1" id="Layer_1" xmlns="http://www.w3.org/2000/svg" xmlns:xlink="http://www.w3.org/1999/xlink" x="0px" y="0px"
	 viewBox="0 0 95.03 20.98" style="enable-background:new 0 0 95.03 20.98;" xml:space="preserve">
<style type="text/css">
	.st0{fill:#3D3D3D;}
	.st1{fill:none;}
	.st2{fill:#4176B9;}
	.st3{fill:#45B549;}
</style>
<g>
	<g>
		<path class="st0" d="M6.08,17.44l-0.67,1.99h-0.3l-0.54-1.59l-0.54,1.59h-0.3l-0.67-1.99h0.29l0.54,1.62l0.56-1.62h0.26l0.55,1.63
			l0.55-1.63H6.08z"/>
		<path class="st0" d="M9.96,19.18v0.25H8.51v-1.99h1.4v0.25H8.8v0.61h1v0.24h-1v0.64H9.96z"/>
		<path class="st0" d="M14.22,18.89c0,0.34-0.26,0.54-0.76,0.54H12.5v-1.99h0.89c0.46,0,0.71,0.19,0.71,0.51
			c0,0.22-0.11,0.37-0.27,0.44C14.07,18.46,14.22,18.63,14.22,18.89z M12.79,17.67v0.64h0.58c0.29,0,0.45-0.11,0.45-0.32
			c0-0.21-0.16-0.32-0.45-0.32H12.79z M13.93,18.87c0-0.23-0.17-0.33-0.49-0.33h-0.65v0.66h0.65C13.76,19.2,13.93,19.1,13.93,18.87z
			"/>
		<path class="st0" d="M21.31,18.89c0,0.34-0.26,0.54-0.76,0.54H19.6v-1.99h0.89c0.46,0,0.71,0.19,0.71,0.51
			c0,0.22-0.11,0.37-0.27,0.44C21.16,18.46,21.31,18.63,21.31,18.89z M19.88,17.67v0.64h0.58c0.29,0,0.45-0.11,0.45-0.32
			c0-0.21-0.16-0.32-0.45-0.32H19.88z M21.02,18.87c0-0.23-0.17-0.33-0.49-0.33h-0.65v0.66h0.65C20.85,19.2,21.02,19.1,21.02,18.87z
			"/>
		<path class="st0" d="M23.82,18.57v-1.13h0.28v1.12c0,0.44,0.2,0.64,0.56,0.64c0.36,0,0.56-0.2,0.56-0.64v-1.12h0.28v1.13
			c0,0.58-0.32,0.88-0.84,0.88C24.14,19.45,23.82,19.15,23.82,18.57z"/>
		<path class="st0" d="M27.99,19.2l0.11-0.22c0.15,0.13,0.4,0.23,0.66,0.23c0.34,0,0.49-0.13,0.49-0.31c0-0.49-1.21-0.18-1.21-0.92
			c0-0.31,0.24-0.57,0.76-0.57c0.23,0,0.47,0.06,0.64,0.18l-0.09,0.23c-0.17-0.11-0.37-0.16-0.55-0.16c-0.34,0-0.48,0.14-0.48,0.32
			c0,0.49,1.21,0.18,1.21,0.91c0,0.3-0.24,0.57-0.77,0.57C28.45,19.45,28.15,19.35,27.99,19.2z"/>
		<path class="st0" d="M32.03,17.44h0.28v1.99h-0.28V17.44z"/>
		<path class="st0" d="M36.71,17.44v1.99h-0.23l-1.19-1.48v1.48H35v-1.99h0.23l1.19,1.48v-1.48H36.71z"/>
		<path class="st0" d="M40.84,19.18v0.25H39.4v-1.99h1.4v0.25h-1.12v0.61h1v0.24h-1v0.64H40.84z"/>
		<path class="st0" d="M43.21,19.2l0.11-0.22c0.15,0.13,0.4,0.23,0.66,0.23c0.34,0,0.49-0.13,0.49-0.31c0-0.49-1.21-0.18-1.21-0.92
			c0-0.31,0.24-0.57,0.76-0.57c0.23,0,0.47,0.06,0.64,0.18l-0.09,0.23c-0.17-0.11-0.37-0.16-0.55-0.16c-0.34,0-0.48,0.14-0.48,0.32
			c0,0.49,1.21,0.18,1.21,0.91c0,0.3-0.24,0.57-0.77,0.57C43.66,19.45,43.37,19.35,43.21,19.2z"/>
		<path class="st0" d="M47.06,19.2l0.11-0.22c0.15,0.13,0.4,0.23,0.66,0.23c0.34,0,0.49-0.13,0.49-0.31c0-0.49-1.21-0.18-1.21-0.92
			c0-0.31,0.24-0.57,0.76-0.57c0.23,0,0.47,0.06,0.64,0.18l-0.09,0.23c-0.17-0.11-0.37-0.16-0.55-0.16c-0.34,0-0.48,0.14-0.48,0.32
			c0,0.49,1.21,0.18,1.21,0.91c0,0.3-0.24,0.57-0.77,0.57C47.52,19.45,47.22,19.35,47.06,19.2z"/>
		<path class="st0" d="M53.77,19.2l0.1-0.22c0.15,0.13,0.4,0.23,0.66,0.23c0.34,0,0.49-0.13,0.49-0.31c0-0.49-1.21-0.18-1.21-0.92
			c0-0.31,0.24-0.57,0.76-0.57c0.23,0,0.47,0.06,0.64,0.18l-0.09,0.23c-0.17-0.11-0.37-0.16-0.55-0.16c-0.34,0-0.48,0.14-0.48,0.32
			c0,0.49,1.21,0.18,1.21,0.91c0,0.3-0.24,0.57-0.77,0.57C54.23,19.45,53.93,19.35,53.77,19.2z"/>
		<path class="st0" d="M57.64,18.43c0-0.58,0.45-1.02,1.06-1.02c0.61,0,1.05,0.43,1.05,1.02c0,0.59-0.45,1.02-1.05,1.02
			C58.09,19.45,57.64,19.02,57.64,18.43z M59.47,18.43c0-0.44-0.33-0.76-0.77-0.76c-0.45,0-0.78,0.32-0.78,0.76
			c0,0.44,0.33,0.76,0.78,0.76C59.14,19.2,59.47,18.88,59.47,18.43z"/>
		<path class="st0" d="M62.28,17.44h0.28v1.74h1.08v0.25h-1.36V17.44z"/>
		<path class="st0" d="M66,18.57v-1.13h0.28v1.12c0,0.44,0.2,0.64,0.56,0.64c0.36,0,0.56-0.2,0.56-0.64v-1.12h0.28v1.13
			c0,0.58-0.32,0.88-0.84,0.88C66.32,19.45,66,19.15,66,18.57z"/>
		<path class="st0" d="M70.72,17.69h-0.68v-0.25h1.65v0.25H71v1.74h-0.28V17.69z"/>
		<path class="st0" d="M74.08,17.44h0.28v1.99h-0.28V17.44z"/>
		<path class="st0" d="M76.89,18.43c0-0.58,0.45-1.02,1.06-1.02c0.61,0,1.05,0.43,1.05,1.02c0,0.59-0.45,1.02-1.05,1.02
			C77.34,19.45,76.89,19.02,76.89,18.43z M78.72,18.43c0-0.44-0.33-0.76-0.77-0.76c-0.45,0-0.78,0.32-0.78,0.76
			c0,0.44,0.33,0.76,0.78,0.76C78.39,19.2,78.72,18.88,78.72,18.43z"/>
		<path class="st0" d="M83.24,17.44v1.99H83l-1.19-1.48v1.48h-0.28v-1.99h0.23l1.19,1.48v-1.48H83.24z"/>
		<path class="st0" d="M85.74,19.2l0.1-0.22c0.15,0.13,0.4,0.23,0.66,0.23c0.34,0,0.49-0.13,0.49-0.31c0-0.49-1.21-0.18-1.21-0.92
			c0-0.31,0.24-0.57,0.76-0.57c0.23,0,0.47,0.06,0.64,0.18l-0.09,0.23c-0.17-0.11-0.37-0.16-0.55-0.16c-0.34,0-0.48,0.14-0.48,0.32
			c0,0.49,1.21,0.18,1.21,0.91c0,0.3-0.24,0.57-0.77,0.57C86.2,19.45,85.9,19.35,85.74,19.2z"/>
	</g>
	<g>
		<path class="st0" d="M92.19,0.95c0.3,0,0.53,0.05,0.69,0.16s0.24,0.27,0.24,0.5c0,0.14-0.03,0.25-0.1,0.34
			c-0.06,0.09-0.16,0.16-0.28,0.21c0.04,0.05,0.08,0.11,0.13,0.17c0.04,0.06,0.09,0.13,0.13,0.2c0.04,0.07,0.09,0.14,0.13,0.22
			c0.04,0.08,0.08,0.15,0.11,0.22h-0.5c-0.04-0.07-0.07-0.13-0.11-0.2c-0.04-0.07-0.08-0.13-0.12-0.2
			c-0.04-0.06-0.08-0.12-0.12-0.18c-0.04-0.06-0.08-0.11-0.12-0.15h-0.22v0.73h-0.45V1.01c0.1-0.02,0.2-0.03,0.3-0.04
			C92.02,0.96,92.11,0.95,92.19,0.95z M92.22,1.34c-0.03,0-0.06,0-0.09,0c-0.03,0-0.05,0-0.07,0.01v0.54h0.13
			c0.17,0,0.29-0.02,0.36-0.06c0.07-0.04,0.11-0.11,0.11-0.22c0-0.1-0.04-0.17-0.11-0.21S92.36,1.34,92.22,1.34z"/>
	</g>
	<g>
		<path class="st0" d="M92.32,3.92c-1.08,0-1.96-0.88-1.96-1.96c0-1.08,0.88-1.96,1.96-1.96c1.08,0,1.96,0.88,1.96,1.96
			C94.27,3.04,93.4,3.92,92.32,3.92z M92.32,0.29c-0.92,0-1.67,0.75-1.67,1.67s0.75,1.67,1.67,1.67c0.92,0,1.67-0.75,1.67-1.67
			S93.24,0.29,92.32,0.29z"/>
	</g>
	<g>
		<path class="st0" d="M7.89,15.67c-2.32,0-4.1-0.65-5.31-1.94c-1.22-1.29-1.83-3.13-1.83-5.51c0-1.18,0.19-2.24,0.56-3.17
			c0.37-0.93,0.88-1.71,1.53-2.35c0.65-0.64,1.42-1.12,2.31-1.45c0.89-0.33,1.86-0.5,2.91-0.5c0.61,0,1.16,0.04,1.65,0.13
			c0.5,0.09,0.93,0.19,1.3,0.31c0.37,0.12,0.68,0.24,0.93,0.36s0.43,0.22,0.54,0.29l-0.93,2.6c-0.44-0.23-0.95-0.43-1.54-0.6
			C9.42,3.69,8.76,3.6,8.02,3.6c-0.5,0-0.98,0.08-1.45,0.25C6.09,4.02,5.67,4.28,5.3,4.65C4.94,5.01,4.65,5.48,4.43,6.06
			C4.21,6.64,4.1,7.34,4.1,8.16c0,0.66,0.07,1.28,0.22,1.85c0.14,0.57,0.38,1.06,0.7,1.48c0.32,0.41,0.75,0.74,1.27,0.98
			c0.52,0.24,1.16,0.36,1.9,0.36c0.47,0,0.89-0.03,1.26-0.08c0.37-0.05,0.7-0.12,0.99-0.2c0.29-0.08,0.54-0.16,0.76-0.26
			c0.22-0.1,0.42-0.19,0.6-0.27l0.89,2.58c-0.45,0.27-1.09,0.52-1.92,0.74C9.94,15.56,8.98,15.67,7.89,15.67z"/>
		<path class="st0" d="M18.93,0.92c2.15,0,3.79,0.38,4.93,1.15c1.14,0.76,1.71,1.95,1.71,3.56c0,1-0.23,1.82-0.69,2.45
			s-1.12,1.12-1.99,1.47c0.29,0.36,0.59,0.77,0.91,1.23c0.32,0.46,0.63,0.94,0.94,1.44c0.31,0.5,0.61,1.02,0.9,1.57
			c0.29,0.54,0.56,1.08,0.8,1.6h-3.6c-0.26-0.47-0.53-0.94-0.8-1.42c-0.27-0.48-0.55-0.95-0.83-1.4c-0.28-0.45-0.56-0.88-0.84-1.29
			c-0.28-0.41-0.55-0.77-0.83-1.1h-1.59v5.22h-3.22V1.29c0.7-0.14,1.43-0.23,2.18-0.29C17.67,0.95,18.34,0.92,18.93,0.92z
			 M19.12,3.67c-0.23,0-0.44,0.01-0.63,0.02c-0.19,0.01-0.36,0.03-0.53,0.04v3.88h0.91c1.21,0,2.08-0.15,2.6-0.45
			c0.52-0.3,0.78-0.82,0.78-1.55c0-0.7-0.27-1.2-0.79-1.5C20.93,3.81,20.15,3.67,19.12,3.67z"/>
		<path class="st0" d="M59.64,15.39c-0.92-1.64-1.92-3.25-2.99-4.85c-1.07-1.6-2.21-3.1-3.43-4.52v9.37h-3.18V1.09h2.62
			c0.45,0.45,0.96,1.01,1.51,1.67c0.55,0.66,1.11,1.37,1.68,2.12c0.57,0.75,1.14,1.53,1.7,2.33c0.56,0.8,1.09,1.58,1.59,2.32V1.09
			h3.2v14.3H59.64z"/>
		<path class="st0" d="M71.23,15.67c-1,0-1.87-0.14-2.6-0.42c-0.73-0.28-1.33-0.67-1.81-1.18s-0.83-1.1-1.05-1.8
			c-0.23-0.69-0.34-1.46-0.34-2.3V1.09h3.22v8.63c0,0.58,0.07,1.07,0.2,1.47c0.13,0.41,0.31,0.74,0.54,0.99
			c0.23,0.25,0.5,0.44,0.82,0.55s0.68,0.16,1.06,0.16c0.78,0,1.42-0.24,1.91-0.72c0.49-0.48,0.73-1.3,0.73-2.46V1.09h3.22v8.89
			c0,0.84-0.12,1.61-0.35,2.31c-0.23,0.7-0.59,1.3-1.07,1.81c-0.48,0.5-1.09,0.89-1.84,1.17C73.13,15.54,72.25,15.67,71.23,15.67z"
			/>
		<path class="st0" d="M84.13,12.93c0.45,0,0.83-0.04,1.12-0.11c0.3-0.08,0.53-0.18,0.71-0.31c0.18-0.13,0.3-0.29,0.37-0.46
			c0.07-0.18,0.1-0.38,0.1-0.6c0-0.47-0.22-0.86-0.66-1.17c-0.44-0.31-1.2-0.64-2.27-1c-0.47-0.16-0.94-0.35-1.4-0.57
			c-0.47-0.21-0.89-0.48-1.26-0.8c-0.37-0.32-0.67-0.71-0.91-1.18c-0.23-0.46-0.35-1.02-0.35-1.68c0-0.66,0.12-1.25,0.37-1.78
			c0.25-0.53,0.6-0.98,1.05-1.35c0.45-0.37,1-0.66,1.65-0.86c0.65-0.2,1.38-0.3,2.19-0.3c0.96,0,1.8,0.1,2.5,0.31
			c0.7,0.21,1.28,0.43,1.73,0.68l-0.93,2.54c-0.4-0.21-0.84-0.39-1.33-0.55c-0.49-0.16-1.08-0.24-1.76-0.24
			c-0.77,0-1.32,0.11-1.66,0.32c-0.34,0.21-0.51,0.54-0.51,0.98c0,0.26,0.06,0.48,0.19,0.66c0.12,0.18,0.3,0.34,0.53,0.49
			c0.23,0.14,0.49,0.28,0.78,0.39c0.3,0.12,0.62,0.24,0.98,0.36c0.74,0.27,1.39,0.55,1.94,0.81c0.55,0.27,1.01,0.58,1.37,0.94
			c0.36,0.36,0.64,0.78,0.81,1.26c0.18,0.48,0.27,1.07,0.27,1.75c0,1.33-0.47,2.37-1.4,3.11c-0.94,0.74-2.35,1.1-4.23,1.1
			c-0.63,0-1.2-0.04-1.71-0.11c-0.51-0.08-0.96-0.17-1.35-0.28c-0.39-0.11-0.73-0.23-1.01-0.35c-0.28-0.12-0.52-0.24-0.71-0.35
			l0.91-2.56c0.43,0.23,0.95,0.44,1.58,0.63C82.45,12.84,83.22,12.93,84.13,12.93z"/>
		<g>
			<g>
				<path class="st1" d="M30.21,8.12c0,2.09,1.7,3.79,3.79,3.79s3.79-1.7,3.79-3.79c0-0.01,0-0.02,0-0.03h-0.44V7.87h-3.58
					c0-1.26,0.32-2.45,0.87-3.48C34.43,4.35,34.22,4.33,34,4.33C31.91,4.33,30.21,6.03,30.21,8.12z"/>
				<path class="st2" d="M37.79,8.12c0,2.09-1.7,3.79-3.79,3.79s-3.79-1.7-3.79-3.79s1.7-3.79,3.79-3.79c0.22,0,0.43,0.02,0.64,0.06
					c0.63-1.18,1.57-2.15,2.71-2.84C36.35,1.03,35.21,0.73,34,0.73c-4.08,0-7.39,3.31-7.39,7.39S29.92,15.5,34,15.5
					c4.08,0,7.39-3.31,7.39-7.39c0-0.01,0-0.02,0-0.03h-3.59C37.79,8.1,37.79,8.11,37.79,8.12z"/>
			</g>
			<g>
				<path class="st1" d="M45.44,8.12c0-2.09-1.7-3.79-3.79-3.79c-2.09,0-3.78,1.68-3.79,3.77h0.63v0.27h3.39
					c0,1.26-0.32,2.45-0.87,3.48c0.21,0.04,0.42,0.06,0.64,0.06C43.74,11.91,45.44,10.21,45.44,8.12z"/>
				<path class="st3" d="M41.65,0.73c-4.07,0-7.37,3.29-7.38,7.36h3.59c0.01-2.08,1.7-3.77,3.79-3.77c2.09,0,3.79,1.7,3.79,3.79
					s-1.7,3.79-3.79,3.79c-0.22,0-0.43-0.02-0.64-0.06c-0.63,1.18-1.57,2.15-2.71,2.84c1.01,0.52,2.15,0.81,3.35,0.81
					c4.08,0,7.39-3.31,7.39-7.39S45.72,0.73,41.65,0.73z"/>
			</g>
		</g>
	</g>
</g>
</svg>
